Coordinates
version=1
nRows=14
nColumns=40
inDegrees=yes

Units are S.I. units (second, meters, Newtons, ...)
If the header above contains a line with 'inDegrees', this indicates whether rotational values are in degrees (yes) or radians (no).

endheader
time	pelvis_tilt	pelvis_list	pelvis_rotation	pelvis_tx	pelvis_ty	pelvis_tz	hip_flexion_r	hip_adduction_r	hip_rotation_r	knee_angle_r	knee_angle_r_beta	ankle_angle_r	subtalar_angle_r	mtp_angle_r	hip_flexion_l	hip_adduction_l	hip_rotation_l	knee_angle_l	knee_angle_l_beta	ankle_angle_l	subtalar_angle_l	mtp_angle_l	lumbar_extension	lumbar_bending	lumbar_rotation	arm_flex_r	arm_add_r	arm_rot_r	elbow_flex_r	pro_sup_r	wrist_flex_r	wrist_dev_r	arm_flex_l	arm_add_l	arm_rot_l	elbow_flex_l	pro_sup_l	wrist_flex_l	wrist_dev_l
     17.51500000	     26.39686475	    -10.43163074	    178.49178131	      0.36277784	      0.70669410	     -0.59591118	     88.47050034	    -10.14848761	      9.49731442	     81.54020567	      1.42314506	     23.02588775	      0.00000000	      0.00000000	     81.20300494	     -4.60744465	     -9.34909091	     77.73339270	      1.35670364	     26.10734764	      0.00000000	      0.00000000	    -48.26323822	     -7.05672395	     -7.58240966	     59.90815727	    -12.60970577	     45.45376063	      9.30485883	     10.54617076	      0.00000000	      0.00000000	     67.90327737	    -16.87619736	     41.77180275	     14.04331587	     84.68984425	      0.00000000	      0.00000000
     17.52000000	     26.46629316	    -10.43421274	    178.43554728	      0.36258992	      0.70751830	     -0.59600495	     88.40328131	    -10.08621788	      9.48828062	     81.34316551	      1.41970606	     22.95969224	      0.00000000	      0.00000000	     81.14990939	     -4.66964952	     -9.38480691	     77.57505175	      1.35394007	     26.04671736	      0.00000000	      0.00000000	    -48.24497853	     -7.10993922	     -7.53020190	     59.91263854	    -12.60855256	     45.46112919	      9.29385361	     10.52728825	      0.00000000	      0.00000000	     67.92375895	    -16.85306815	     41.77702929	     14.07003288	     84.68025015	      0.00000000	      0.00000000
     17.52500000	     26.56893635	    -10.44697568	    178.39937735	      0.36252887	      0.70846894	     -0.59596979	     88.35704469	    -10.03735075	      9.48667290	     81.09897010	      1.41544405	     22.88262801	      0.00000000	      0.00000000	     81.10021733	     -4.66696239	     -9.38632742	     77.32325885	      1.34954546	     25.97185522	      0.00000000	      0.00000000	    -48.24020123	     -7.13701822	     -7.48243771	     60.00147738	    -12.63514334	     45.47856417	      9.28381237	     10.49537278	      0.00000000	      0.00000000	     67.98907093	    -16.82668678	     41.78505379	     14.08512880	     84.66236779	      0.00000000	      0.00000000
     17.53000000	     26.86510668	    -10.46327408	    178.29104020	      0.36271292	      0.70890236	     -0.59613019	     88.55061662	     -9.84266768	      9.51474454	     80.85467206	      1.41118024	     22.70513430	      0.00000000	      0.00000000	     81.30654899	     -4.89723524	     -9.56784847	     77.16690441	      1.34681656	     25.75187418	      0.00000000	      0.00000000	    -47.96375242	     -7.26659813	     -7.35764094	     60.12329964	    -12.44968319	     44.82032681	      8.56860159	     13.66152227	      0.00000000	      0.00000000	     67.94791597	    -16.44982725	     41.56993050	     13.65140335	     79.95557313	      0.00000000	      0.00000000
     17.53500000	     26.70427041	    -10.40379058	    178.44383976	      0.36220501	      0.71031310	     -0.59574110	     88.20058710	    -10.11558310	      9.36778480	     80.69959435	      1.40847363	     22.75290534	      0.00000000	      0.00000000	     80.98963217	     -4.61624878	     -9.40712866	     76.93535553	      1.34277527	     25.77796370	      0.00000000	      0.00000000	    -48.26847977	     -7.06441333	     -7.45598340	     60.07728460	    -12.71022252	     45.66808016	      9.24085207	     10.97978461	      0.00000000	      0.00000000	     68.12675895	    -16.82969493	     42.43393287	     14.08234535	     84.52606748	      0.00000000	      0.00000000
     17.54000000	     26.79919821	    -10.40377856	    178.39866618	      0.36200530	      0.71116764	     -0.59575422	     88.15147154	    -10.06971963	      9.34266153	     80.48781905	      1.40477745	     22.70228339	      0.00000000	      0.00000000	     80.94079543	     -4.66866498	     -9.46033281	     76.73637075	      1.33930233	     25.73426977	      0.00000000	      0.00000000	    -48.24979619	     -7.09302360	     -7.41090812	     60.11119316	    -12.71728651	     45.67205632	      9.24141721	     10.94014508	      0.00000000	      0.00000000	     68.14849251	    -16.81291648	     42.40088813	     14.10656690	     84.51610608	      0.00000000	      0.00000000
     17.54500000	     26.96483247	    -10.32588101	    178.46806901	      0.36196250	      0.71189033	     -0.59553038	     88.16310004	    -10.10740960	      9.25135568	     80.28157365	      1.40117779	     22.61571902	      0.00000000	      0.00000000	     81.00247867	     -4.57558243	     -9.32143027	     76.52036265	      1.33553227	     25.66726443	      0.00000000	      0.00000000	    -48.16558158	     -6.98234672	     -7.38508100	     60.13999497	    -12.77762687	     45.80263974	      9.28117054	     11.03262974	      0.00000000	      0.00000000	     68.17662469	    -16.77810552	     42.47717250	     14.06213212	     84.44948025	      0.00000000	      0.00000000
     17.55000000	     27.02506171	    -10.31539494	    178.42286181	      0.36168487	      0.71270716	     -0.59562714	     88.08682356	    -10.05762951	      9.22477680	     80.10562231	      1.39810686	     22.56035798	      0.00000000	      0.00000000	     80.94402470	     -4.66221762	     -9.39677098	     76.38307227	      1.33313610	     25.61201254	      0.00000000	      0.00000000	    -48.16615709	     -7.01633856	     -7.34810377	     60.11988605	    -12.75780216	     45.80463110	      9.27411333	     11.00720076	      0.00000000	      0.00000000	     68.20182154	    -16.77135079	     42.45428302	     14.07280443	     84.44593362	      0.00000000	      0.00000000
     17.55500000	     27.11729409	    -10.32305335	    178.37995065	      0.36148118	      0.71365129	     -0.59564868	     88.02947365	    -10.02155404	      9.19718655	     79.88038785	      1.39417578	     22.48502298	      0.00000000	      0.00000000	     80.88334902	     -4.70040082	     -9.44502302	     76.16129172	      1.32926530	     25.52423163	      0.00000000	      0.00000000	    -48.17729162	     -7.04546410	     -7.31272037	     60.19538939	    -12.77610400	     45.80133991	      9.26702906	     10.96252828	      0.00000000	      0.00000000	     68.25379384	    -16.74087782	     42.42037916	     14.07724722	     84.44037350	      0.00000000	      0.00000000
     17.56000000	     27.14148904	    -10.39370645	    178.61239250	      0.36100257	      0.71480326	     -0.59497349	     87.93149412	    -10.37906036	      9.18304192	     79.73249184	      1.39159450	     22.41736496	      0.00000000	      0.00000000	     80.72226258	     -4.37108269	     -9.49364224	     75.87499926	      1.32426856	     25.48888140	      0.00000000	      0.00000000	    -48.27743298	     -6.88581469	     -7.53580107	     60.31971187	    -12.65688420	     45.20611895	      8.78587102	     13.70142924	      0.00000000	      0.00000000	     68.17499221	    -16.68533626	     42.41172088	     14.18023104	     81.20902034	      0.00000000	      0.00000000
     17.56500000	     27.36618040	    -10.28471675	    178.45953971	      0.36110771	      0.71537309	     -0.59535610	     87.97330289	    -10.09852077	      9.10488277	     79.45080647	      1.38667817	     22.33084642	      0.00000000	      0.00000000	     80.87710288	     -4.62735892	     -9.41577906	     75.76181438	      1.32229311	     25.32531864	      0.00000000	      0.00000000	    -48.10444527	     -6.94395079	     -7.31866590	     60.25811161	    -12.78636147	     45.80218507	      9.20864411	     11.31910045	      0.00000000	      0.00000000	     68.30552003	    -16.67407560	     42.30228128	     14.03270860	     84.58278191	      0.00000000	      0.00000000
     17.57000000	     27.43589981	    -10.25451830	    178.42564858	      0.36077559	      0.71609042	     -0.59541116	     87.92286595	    -10.04683296	      9.07733579	     79.32617616	      1.38450296	     22.27806244	      0.00000000	      0.00000000	     80.83022775	     -4.73576699	     -9.52185594	     75.63893784	      1.32014851	     25.28159517	      0.00000000	      0.00000000	    -48.09787063	     -6.94493829	     -7.29365462	     60.27122692	    -12.77187670	     45.80768565	      9.20276681	     11.29264419	      0.00000000	      0.00000000	     68.32079939	    -16.68295341	     42.28327813	     14.01913491	     84.57214373	      0.00000000	      0.00000000
     17.57500000	     27.53693714	    -10.26180770	    178.37495331	      0.36054395	      0.71709931	     -0.59543101	     87.86122212	    -10.02146093	      9.02714110	     79.07480591	      1.38011572	     22.19070361	      0.00000000	      0.00000000	     80.76746278	     -4.78238366	     -9.57373962	     75.40226181	      1.31601773	     25.17995961	      0.00000000	      0.00000000	    -48.09466734	     -6.98012656	     -7.25606549	     60.34442159	    -12.76978700	     45.82330017	      9.19277951	     11.25109862	      0.00000000	      0.00000000	     68.36680570	    -16.67311534	     42.25386254	     14.02651781	     84.55892713	      0.00000000	      0.00000000
     17.58000000	     27.57810780	    -10.30671900	    178.64052917	      0.36008183	      0.71816302	     -0.59465808	     87.79438652	    -10.41135715	      8.97957508	     78.95604771	      1.37804300	     22.10951442	      0.00000000	      0.00000000	     80.63462401	     -4.42815352	     -9.59046092	     75.11287664	      1.31096701	     25.12863384	      0.00000000	      0.00000000	    -48.18786034	     -6.76853998	     -7.49288144	     60.47604131	    -12.68409300	     45.44869198	      8.74015998	     13.78366294	      0.00000000	      0.00000000	     68.25785951	    -16.65842101	     42.23408564	     14.22567121	     81.62549881	      0.00000000	      0.00000000
